<?xml version="1.0" encoding="utf-8"?>
<!-- Generator: Adobe Illustrator 23.0.6, SVG Export Plug-In . SVG Version: 6.00 Build 0)  -->
<svg version="1.1" id="Layer_1" xmlns="http://www.w3.org/2000/svg" xmlns:xlink="http://www.w3.org/1999/xlink" x="0px" y="0px"
	 viewBox="0 0 217 126" style="enable-background:new 0 0 217 126;" xml:space="preserve">
<style type="text/css">
	.st0{fill:#E5E5E5;}
</style>
<path class="st0" d="M28,45.3c0-1.4-2.7-1.9-9.8-1.9c-4.4,0-5.4,1.4-5.4,3.6v30.3c0,4.6,3.6,5.3,7,5.3c4.4,0,6.1-2.4,6.4-6.5
	l0.5-7.6H29l0.5,7.7C29.9,82.4,24.9,87,14.8,87C5.1,87,0,85,0,79.5V47.6C0,41.4,8.3,39,18.1,39c8.8,0,13.1,2,13.1,6
	c0,3.3-0.3,7.7-3.4,14.2H14.9C26.8,49.6,28,47.1,28,45.3z"/>
<path class="st0" d="M52.8,62.4h12V61h-12V43.8h16.6v-4.2H40.1v46.7h31v-4.2H52.8V62.4z"/>
<path class="st0" d="M92.6,62.8l-0.2-0.5c8.5-0.6,14.4-2.9,14.4-8.9v-5.8c0-6.3-6.6-8.6-16.5-8.6c-8.8,0-13.1,2-13.1,6
	c0,3.3,0.3,6.5,1.7,12.3h12c-9.5-9-10.5-10.2-10.5-12c0-1.4,1.9-1.9,5.3-1.9c8.1,0,8.3,1.4,8.3,3.6v10.2c0,3.1-3.2,4.8-8.8,4.8h-3.7
	v1.3h3.7c6.4,0,9.5,1.5,9.5,5.4v8.6c0,4.6-3.6,5.3-7,5.3c-4.4,0-6.1-2.4-6.4-6.5l-0.5-7.6h-2.4L78,76.3C77.7,82.4,82.6,87,92.8,87
	c9.7,0,14.8-2,14.8-7.5V72c0-4.3-1-8.3-5.8-9.5L92.6,62.8z"/>
<path class="st0" d="M160.6,86.4l-20.7-46.7h-16.8l7.3,6.5l-18.7,40.3h15.3l2.2-13.1H142l4.4,13.1H160.6z M133.3,49.9h1.9l3.2,12.8
	l3.1,9.3h-11.9L133.3,49.9z"/>
<path class="st0" d="M217,86.4l-1.7-46.7h-10.7l-9.8,30.3h-1.9l-13.6-30.3h-12.7l-1.7,46.7h13.4L173.7,53h1.7l14.1,30.2h3.9
	L204.3,53h1.9l-2.2,33.4H217z"/>
</svg>
