<svg width="455" height="268" viewBox="0 0 455 268" fill="none" xmlns="http://www.w3.org/2000/svg">
<path d="M58.6824 35.0187C58.6824 27.1573 52.992 24.2987 38.0547 24.2987C28.8077 24.2987 26.6738 32.16 26.6738 44.6667V214.043C26.6738 239.771 34.1425 243.701 41.2555 243.701C50.5025 243.701 54.059 230.123 54.7703 207.253L55.8372 165.088H60.8163L61.8833 208.325C62.5946 242.272 52.2807 268 30.9417 268C10.6695 268 0 256.923 0 226.192V48.24C0 13.2213 17.4269 0 38.0547 0C56.5485 0 65.4398 11.0773 65.4398 33.232C65.4398 51.456 64.7285 76.4693 58.3268 112.56H31.2973C56.1929 58.96 58.6824 45.024 58.6824 35.0187Z" fill="white"/>
<path d="M110.759 130.784H136.01V122.923H110.759V26.8H145.613V3.57332H84.0851V264.427H149.169V241.2H110.759V130.784Z" fill="white"/>
<path d="M194.208 132.928L193.852 130.069C211.635 126.853 224.082 113.632 224.082 80.4V48.24C224.082 13.2213 210.212 0 189.584 0C171.09 0 162.199 11.0773 162.199 33.232C162.199 51.456 162.91 69.3227 165.756 101.84H191.007C171.09 51.8133 168.957 45.024 168.957 35.0187C168.957 27.1573 172.869 24.2987 179.982 24.2987C197.053 24.2987 197.409 32.16 197.409 44.6667V101.84C197.409 119.349 190.651 128.64 178.915 128.64H171.09V135.787H178.915C192.429 135.787 198.831 144.363 198.831 166.16V214.043C198.831 239.771 191.363 243.701 184.25 243.701C175.003 243.701 171.446 230.123 170.735 207.253L169.668 165.088H164.689L163.622 208.325C162.91 242.272 173.224 268 194.563 268C214.836 268 225.505 256.923 225.505 226.192V184.027C225.505 160.085 223.371 137.931 213.413 130.784L194.208 132.928Z" fill="white"/>
<path d="M336.824 264.427L293.434 3.57332H258.225L273.518 39.664L234.396 264.427H266.405L271.028 191.173H297.702L306.949 264.427H336.824ZM279.564 60.7467H283.476L290.234 132.213L296.635 184.027H271.74L279.564 60.7467Z" fill="white"/>
<path d="M455 264.427L451.444 3.57332H429.038L408.41 172.592H404.498L376.045 3.57332H349.372L345.815 264.427H373.912L364.309 77.8987H367.865L397.385 246.56H405.564L428.326 77.8987H432.238L427.615 264.427H455Z" fill="white"/>
</svg>
