<?xml version="1.0" encoding="utf-8"?>
<!-- Generator: Adobe Illustrator 23.0.6, SVG Export Plug-In . SVG Version: 6.00 Build 0)  -->
<svg version="1.1" id="Layer_1" xmlns="http://www.w3.org/2000/svg" xmlns:xlink="http://www.w3.org/1999/xlink" x="0px" y="0px"
	 viewBox="0 0 217 126" style="enable-background:new 0 0 217 126;" xml:space="preserve">
<style type="text/css">
	.st0{fill:#00FF47;}
</style>
<path class="st0" d="M18.6,40.8c0-1.8-1.3-2.4-4.6-2.4c-2.1,0-2.6,1.8-2.6,4.6v37.9c0,5.8,1.7,6.6,3.3,6.6c2.1,0,2.9-3,3-8.2
	l0.2-9.4H19l0.2,9.7c0.2,7.6-2.2,13.4-7,13.4c-4.6,0-7-2.5-7-9.4V43.8C5.4,36,9.3,33,13.9,33c4.2,0,6.2,2.5,6.2,7.4
	c0,4.1-0.2,9.7-1.6,17.8h-6.1C18,46.2,18.6,43.1,18.6,40.8z"/>
<path class="st0" d="M30.3,62.3h5.7v-1.8h-5.7V39h7.8v-5.2H24.3v58.4h14.6V87h-8.6V62.3z"/>
<path class="st0" d="M49,62.8L49,62.1c4-0.7,6.8-3.7,6.8-11.1v-7.2C55.8,36,52.6,33,48,33c-4.2,0-6.2,2.5-6.2,7.4
	c0,4.1,0.2,8.1,0.8,15.4h5.7c-4.5-11.2-5-12.7-5-15c0-1.8,0.9-2.4,2.5-2.4c3.8,0,3.9,1.8,3.9,4.6v12.8c0,3.9-1.5,6-4.2,6h-1.8v1.6
	h1.8c3,0,4.5,1.9,4.5,6.8v10.7c0,5.8-1.7,6.6-3.3,6.6c-2.1,0-2.9-3-3-8.2L43.5,70h-1.1l-0.2,9.7C42,87.2,44.3,93,49.1,93
	c4.6,0,7-2.5,7-9.4v-9.4c0-5.4-0.5-10.3-2.7-11.9L49,62.8z"/>
<path class="st0" d="M81.1,92.2l-9.8-58.4h-7.9l3.4,8.1l-8.8,50.3h7.2l1-16.4h6l2.1,16.4H81.1z M68.2,46.6h0.9l1.5,16l1.4,11.6h-5.6
	L68.2,46.6z"/>
<path class="st0" d="M107.7,92.2l-0.8-58.4h-5l-4.6,37.8h-0.9l-6.4-37.8h-6l-0.8,58.4h6.3l-2.2-41.8h0.8l6.6,37.8h1.8l5.1-37.8h0.9
	l-1,41.8H107.7z"/>
</svg>
