<?xml version="1.0" encoding="utf-8"?>
<!-- Generator: Adobe Illustrator 23.0.6, SVG Export Plug-In . SVG Version: 6.00 Build 0)  -->
<svg version="1.1" id="Layer_1" xmlns="http://www.w3.org/2000/svg" xmlns:xlink="http://www.w3.org/1999/xlink" x="0px" y="0px"
	 viewBox="0 0 217 126" style="enable-background:new 0 0 217 126;" xml:space="preserve">
<style type="text/css">
	.st0{fill:#E5E5E5;}
</style>
<path class="st0" d="M85.1,101c-1.8,0-2.5,1.3-2.5,4.8c0,2.2,1.8,2.7,4.8,2.7h39.5c6,0,6.9-1.8,6.9-3.4c0-2.2-3.2-3-8.5-3.2
	l-9.8-0.3v-1.2l10.1-0.2c7.9-0.2,13.9,2.3,13.9,7.3c0,4.8-2.6,7.3-9.8,7.3H88.2c-8.2,0-11.3-4.1-11.3-8.9c0-4.3,2.6-6.4,7.8-6.4
	c4.3,0,10.1,0.2,18.5,1.7v6.3C90.7,101.6,87.4,101,85.1,101z"/>
<path class="st0" d="M107.4,88.8v-5.9h-1.8v5.9H83.2v-8.2h-5.4v14.4h60.8V79.8h-5.4v9L107.4,88.8z"/>
<path class="st0" d="M107.9,69.3l-0.7,0.1c-0.8-4.2-3.8-7.1-11.6-7.1h-7.5c-8.2,0-11.3,3.3-11.3,8.1c0,4.3,2.6,6.4,7.8,6.4
	c4.3,0,8.4-0.2,16-0.8V70c-11.7,4.7-13.3,5.2-15.6,5.2c-1.8,0-2.5-0.9-2.5-2.6c0-4,1.8-4.1,4.8-4.1h13.3c4.1,0,6.3,1.6,6.3,4.3v1.8
	h1.7v-1.8c0-3.2,2-4.7,7.1-4.7h11.2c6,0,6.9,1.8,6.9,3.4c0,2.2-3.2,3-8.5,3.2l-9.8,0.2v1.2l10.1,0.2c7.9,0.2,13.9-2.3,13.9-7.3
	c0-4.8-2.6-7.3-9.8-7.3h-9.8c-5.6,0-10.8,0.5-12.4,2.8L107.9,69.3z"/>
<path class="st0" d="M138.6,35.9L77.7,46v8.3l8.4-3.6l52.4,9.2v-7.5l-17.1-1.1V45l17.1-2.2V35.9z M91.1,49.3v-0.9l16.7-1.6l12.1-1.5
	v5.8L91.1,49.3z"/>
<path class="st0" d="M138.6,8.2L77.7,9v5.3l39.4,4.8V20l-39.4,6.7v6.3l60.8,0.8v-6.6l-43.5,2.3v-0.8l39.3-6.9v-1.9l-39.3-5.3v-0.9
	l43.5,1.1V8.2z"/>
</svg>
